Patient4_TMGait_0pt6_01_left_40_EMG.mot
version=1
nRows=13
nColumns=33
inDegrees=no
endheader
time	1LAddLong	2LGlutMax	3LGlutMed	4LIliopsoas	5LSemiMemb	6LBicFemLong	7LRecFem	8LVastMed	9LVastLat	10LGasMed	11LTibAnt	12lTibPost	13LPeroneusLong	14LSol	15LExtDigLong	16LFlexDigLong	17RAddLong	18RGlutMax	19RGlutMed	20RIliopsoas	21RSemiMemb	22RBicFemLong	23RRecFem	24RVastMed	25RVastLat	26RGasMed	27RTibAnt	28RTibPost	29RPeroneusLong	30RSol	31RExtDigLong	32RFlexDigLong
48.7	0.023346	-0.041962	-0.056458	0.001068	0.064545	-0.024567	0.075836	0.002289	0.016479	-0.011902	0.013733	-0.004272	0.051727	0.12207	-0.046387	0.007629	-0.018616	0.48096	-0.35934	0.16693	0.001221	-0.067444	-0.32349	-0.090179	0.21088	-0.002441	0.1471	-0.007782	-0.32638	-0.055695	-0.000916	-0.011902
48.701	0.018921	-0.011749	-0.061951	0.011292	0.035553	-0.00473	0.10254	0.009155	-0.09613	-0.043335	-0.061646	-0.010834	0.072937	0.078735	-0.054626	0.004425	-0.030212	0.4509	-0.56412	0.12161	0.036011	-0.057526	-0.39688	0.061035	0.23438	-0.001984	0.14603	-0.007172	-0.2948	-0.033112	-0.003662	-0.019684
48.702	0.00946	-0.020905	-0.067902	0.009613	0.009003	-0.000763	0.09964	0.003967	-0.26093	-0.054779	-0.028076	-0.006104	0.052795	0.000763	-0.011597	0.007019	-0.001068	0.39581	-0.084534	0.031586	0.016327	-0.055389	-0.38605	-0.019073	0.089111	-0.010223	0.13367	0.000153	-0.26291	-0.072632	0	-0.004578
48.703	0.003815	0.045319	-0.066528	0.005646	0.006714	0.008392	0.12589	-0.001068	-0.35126	-0.055389	-0.025482	-0.009613	0.037537	-0.010376	0.003357	-0.000763	0.033264	0.29694	0.040436	-0.003204	0.006256	-0.11902	-0.22354	-0.20798	0.021057	0.001831	0.19134	-0.007935	-0.029602	-0.16235	-0.001678	-0.003357
48.704	0.01358	0.0354	-0.059662	0.007935	0.017395	0.001373	0.11124	0.008392	-0.3006	-0.049744	-0.007019	-0.016327	0.050659	-0.07431	0.006866	0.005035	0.034332	0.25497	-0.15213	-0.012817	0.007324	-0.1471	-0.12589	-0.26108	0.005188	-0.00061	0.22415	-0.008087	-0.25375	-0.14633	-0.003967	-0.002136
48.705	0.011597	0.047607	-0.040436	0.016174	0.015106	0.015259	0.11231	0.009003	-0.17578	-0.045776	-0.009003	-0.023346	0.052338	-0.10895	0.020447	0.00946	0.035095	0.11444	-0.001984	-0.030975	0.031128	-0.15274	-0.023193	-0.1091	-0.008392	-0.00061	0.21759	-0.008545	-1.3884	-0.049438	-0.001373	-0.00412
48.706	0.009155	0.061188	-0.040894	-0.011444	0.005798	0.001373	0.10696	0.000763	-0.061798	-0.018463	-0.003052	-0.016785	0.050201	-0.047302	0.028534	0.005188	0.046082	0.019073	0.24231	-0.12314	0.005341	-0.11536	-0.10117	-0.092926	0.018921	-0.006409	0.050964	-0.005035	-1.0338	0.064545	-0.000458	0.001984
48.707	0.005341	0.087585	-0.028687	-0.020447	0.001373	-0.012512	0.075226	-0.009003	-0.005951	-0.016937	0.000763	-0.020294	0.029144	0.012512	0.034943	0.000153	0.050659	-0.008392	0.07019	-0.066681	-0.20859	-0.046539	0.047607	-0.013733	0.029144	0.003357	-0.004425	-0.006561	-0.81497	0.010986	-0.003052	0.00351
48.708	0.016022	0.10574	-0.042572	-0.023651	-0.011597	-0.035706	0.082855	0	-0.006561	-0.010986	-0.000153	-0.023041	0.043335	0.04776	0.03006	0.006256	0.027313	-0.020142	0.26123	-0.00061	-0.23941	0.006714	0.20813	0.006866	0.02594	0.008087	-0.06073	-0.005341	0.1416	-0.015106	-0.001678	-0.010986
48.709	0.009308	0.11581	-0.042267	0.012054	0.010223	-0.029297	0.077057	-0.002441	-0.006714	-0.001068	-0.000458	-0.024719	0.029144	0.021515	0.024719	0.013123	-0.00946	-0.065918	0.6131	0.088348	-0.11139	-0.004578	0.2002	0.024414	0.018005	0.011292	-0.168	-0.006256	1.0585	0.04364	-0.001526	-0.002136
48.71	0.011902	0.11185	-0.027618	0.027008	0.016785	-0.024872	0.07843	-0.003357	0.015869	-0.006256	0.002747	-0.020905	0.023956	-0.010681	0.013275	-0.009613	-0.062256	-0.069733	0.4808	0.011597	0.041351	0.006866	0.14099	0.13184	0.008698	0.038147	-0.14618	-0.00946	2.021	-0.15167	0.000153	-0.012665
48.711	0.013885	0.10788	-0.028381	0.001373	0.014801	-0.010986	0.061951	0.009613	-0.005798	-0.024109	0.007782	-0.030212	0.017853	-0.014343	0.006866	0.002594	-0.058594	-0.07782	0.20935	-0.053101	0.15839	-0.097504	0.17929	0.23514	0.001831	0.054169	0.020294	-0.007019	0.29205	-0.27557	-0.003662	-0.010376
48.712	0.007782	0.098114	-0.039673	0.008545	0.022125	-0.01358	0.07843	-0.003052	-0.039368	-0.039825	0.000305	-0.028381	0.016022	-0.015106	0.010223	0.007935	-0.037537	-0.12558	0.49133	-0.082245	0.10208	-0.13947	0.14572	0.17273	0.05722	0.047302	0.18768	-0.008392	-0.12543	-0.20493	-0.002289	-0.009766
